<?xml version="1.0" encoding="utf-8"?>
<!-- Generator: Adobe Illustrator 19.0.0, SVG Export Plug-In . SVG Version: 6.00 Build 0)  -->
<svg version="1.1" id="Layer_1" xmlns="http://www.w3.org/2000/svg" xmlns:xlink="http://www.w3.org/1999/xlink" x="0px" y="0px"
	 width="100px" height="100px" viewBox="-115 116 100 100" style="enable-background:new -115 116 100 100;" xml:space="preserve">
<style type="text/css">
	.st0{fill:#FFFFFF;}
</style>
<g>
	<g>
		<path class="st0" d="M-68.7,152.1c0,0.8-0.7,1.5-1.5,1.5h-8.4c-0.8,0-1.5-0.7-1.5-1.5s0.7-1.5,1.5-1.5h8.4
			C-69.4,150.6-68.7,151.2-68.7,152.1z"/>
	</g>
	<g>
		<path class="st0" d="M-77.1,152.1v8.4c0,0.8-0.7,1.5-1.5,1.5s-1.5-0.7-1.5-1.5v-8.4c0-0.8,0.7-1.5,1.5-1.5S-77.1,151.2-77.1,152.1
			z"/>
	</g>
</g>
<g>
	<g>
		<path class="st0" d="M-50,179.8c0,0.8-0.7,1.5-1.5,1.5h-8.4c-0.8,0-1.5-0.7-1.5-1.5s0.7-1.5,1.5-1.5h8.4
			C-50.6,178.3-50,179-50,179.8z"/>
	</g>
	<g>
		<path class="st0" d="M-50,171.4v8.4c0,0.8-0.7,1.5-1.5,1.5s-1.5-0.7-1.5-1.5v-8.4c0-0.8,0.7-1.5,1.5-1.5
			C-50.6,169.9-50,170.5-50,171.4z"/>
	</g>
</g>
<g>
	<path class="st0" d="M-66,163.2c0,0.4-0.1,0.8-0.4,1.1c-0.6,0.6-1.5,0.6-2.1,0l-11.1-11.1c-0.6-0.6-0.6-1.5,0-2.1s1.5-0.6,2.1,0
		l11.1,11.1C-66.2,162.4-66,162.8-66,163.2z"/>
</g>
<g>
	<path class="st0" d="M-50,179.8c0,0.4-0.1,0.8-0.4,1.1c-0.6,0.6-1.5,0.6-2.1,0l-11.2-11.2c-0.6-0.6-0.6-1.5,0-2.1s1.5-0.6,2.1,0
		l11.2,11.2C-50.1,179-50,179.4-50,179.8z"/>
</g>
</svg>
