<svg xmlns="http://www.w3.org/2000/svg" xmlns:xlink="http://www.w3.org/1999/xlink" preserveAspectRatio="xMidYMid" width="64" height="40" viewBox="0 0 64 40">
  <defs>
    <style>

      .cls-2 {
        fill: #252e33;
      }
    </style>
  </defs>
  <path d="M63.749,26.090 C63.343,33.360 49.629,40.005 49.629,40.005 C49.629,40.005 48.574,39.493 47.043,38.601 C52.201,35.433 59.969,29.677 60.309,23.569 C60.585,18.612 60.614,14.825 60.594,10.549 C62.751,11.556 63.934,12.501 63.934,12.501 C63.934,12.501 64.114,19.539 63.749,26.090 ZM41.713,38.879 C41.713,38.879 40.875,38.469 39.591,37.743 C44.704,34.358 51.099,29.033 51.410,23.420 C51.881,14.936 51.650,5.710 51.650,5.710 C51.650,5.710 57.807,8.070 57.807,8.070 C57.807,8.070 58.010,15.729 57.598,23.139 C57.142,31.362 41.713,38.879 41.713,38.879 ZM31.976,38.879 C31.976,38.879 16.547,31.362 16.091,23.139 C15.679,15.729 15.882,4.895 15.882,4.895 C15.882,4.895 21.926,-0.007 31.976,-0.007 C42.025,-0.007 48.070,4.895 48.070,4.895 C48.070,4.895 48.272,15.729 47.861,23.139 C47.404,31.362 31.976,38.879 31.976,38.879 ZM24.546,37.746 C23.249,38.470 22.403,38.879 22.403,38.879 C22.403,38.879 6.826,31.378 6.365,23.173 C5.949,15.777 6.153,8.142 6.153,8.142 C6.153,8.142 12.371,5.786 12.371,5.786 C12.371,5.786 12.137,14.987 12.612,23.452 C12.926,29.054 19.384,34.368 24.546,37.746 ZM16.864,38.596 C15.339,39.492 14.287,40.005 14.287,40.005 C14.287,40.005 0.616,33.334 0.211,26.037 C-0.154,19.460 0.026,12.386 0.026,12.386 C0.026,12.386 1.206,11.437 3.356,10.426 C3.335,14.718 3.365,18.529 3.640,23.505 C3.979,29.638 11.723,35.416 16.864,38.596 Z" id="path-1" class="cls-2" fill-rule="evenodd"/>
</svg>
