<svg xmlns="http://www.w3.org/2000/svg" xmlns:xlink="http://www.w3.org/1999/xlink" preserveAspectRatio="xMidYMid" width="64" height="64" viewBox="0 0 64 64">
  <defs>
    <style>

      .cls-2 {
        fill: #252e33;
      }
    </style>
  </defs>
  <path d="M32.106,-0.004 C14.433,-0.062 0.056,14.220 0.001,31.895 C-0.055,49.572 14.232,63.941 31.904,64.000 C49.571,64.055 63.947,49.770 64.003,32.099 C64.058,14.424 49.780,0.053 32.106,-0.004 ZM30.924,11.282 C31.939,10.258 33.189,9.740 34.647,9.751 C36.112,9.751 37.369,10.275 38.383,11.303 C39.390,12.331 39.890,13.581 39.890,15.025 C39.883,16.477 39.362,17.727 38.341,18.744 C37.313,19.765 36.056,20.279 34.612,20.275 C33.174,20.268 31.931,19.744 30.917,18.719 C29.896,17.695 29.383,16.441 29.390,14.993 C29.397,13.545 29.911,12.296 30.924,11.282 ZM40.494,45.347 C38.980,50.798 34.744,54.597 30.188,54.583 C29.189,54.579 26.126,54.569 24.042,51.659 C23.299,50.611 22.319,47.979 23.396,44.753 C24.299,42.027 27.188,33.728 27.404,33.117 C27.660,32.239 27.744,31.728 27.772,31.443 C27.751,31.439 27.724,31.436 27.689,31.436 C27.432,31.467 26.515,31.613 25.835,31.720 C24.160,31.980 23.786,32.036 23.592,32.047 C23.592,32.047 21.918,32.123 21.918,32.123 C21.918,32.123 22.528,26.924 22.528,26.924 C22.528,26.924 34.502,24.615 34.502,24.615 C34.502,24.615 37.863,24.626 37.863,24.626 C37.863,24.626 31.834,45.155 31.834,45.155 C31.744,45.547 31.995,46.505 32.231,46.637 C32.251,46.634 32.273,46.630 32.286,46.630 C33.925,46.387 35.585,44.665 36.585,43.137 C36.585,43.137 37.432,41.848 37.432,41.848 C37.432,41.848 40.752,44.425 40.752,44.425 C40.752,44.425 40.494,45.347 40.494,45.347 Z" id="path-1" class="cls-2" fill-rule="evenodd"/>
</svg>
