<svg xmlns="http://www.w3.org/2000/svg" xmlns:xlink="http://www.w3.org/1999/xlink" preserveAspectRatio="xMidYMid" width="55" height="64" viewBox="0 0 55 64">
  <defs>
    <style>

      .cls-2 {
        fill: #252e33;
      }
    </style>
  </defs>
  <path d="M11.172,62.956 C16.331,63.921 22.084,64.006 27.071,64.006 C33.638,64.006 51.084,64.006 53.604,57.373 C54.273,55.636 53.953,52.725 53.598,51.649 C52.023,46.882 45.132,43.809 41.434,42.157 C41.093,42.001 40.622,41.832 40.103,41.630 C37.651,40.714 34.299,39.458 33.738,37.279 C32.987,34.375 34.785,32.000 36.366,29.914 C36.978,29.102 37.560,28.336 37.982,27.573 C39.690,24.475 40.957,20.489 41.204,17.422 C41.645,11.910 40.369,7.332 37.506,4.185 C35.017,1.440 31.481,-0.009 27.294,-0.009 C26.570,-0.009 25.822,0.034 25.068,0.123 C18.090,0.938 13.447,6.113 12.952,13.632 C12.551,19.649 14.219,25.174 18.048,30.511 C18.289,30.851 18.536,31.170 18.772,31.473 C19.816,32.818 20.802,34.090 20.609,36.115 C20.349,38.802 17.836,39.773 16.002,40.484 C15.767,40.573 15.535,40.668 15.312,40.757 C13.242,41.596 10.982,42.871 9.769,43.554 C9.769,43.554 9.465,43.726 9.465,43.726 C5.552,45.926 1.298,48.555 0.384,51.968 C-0.252,54.355 -0.074,56.300 0.924,57.912 C2.882,61.077 7.715,62.306 11.172,62.956 Z" id="path-1" class="cls-2" fill-rule="evenodd"/>
</svg>
