<svg xmlns="http://www.w3.org/2000/svg" xmlns:xlink="http://www.w3.org/1999/xlink" preserveAspectRatio="xMidYMid" width="36" height="64" viewBox="0 0 36 64">
  <defs>
    <style>

      .cls-2 {
        fill: #252e33;
      }
    </style>
  </defs>
  <path d="M3.776,64.000 C2.807,64.000 1.837,63.632 1.097,62.897 C-0.383,61.428 -0.383,59.045 1.097,57.576 C1.097,57.576 26.845,32.001 26.845,32.001 C26.845,32.001 1.097,6.426 1.097,6.426 C-0.383,4.956 -0.383,2.573 1.097,1.104 C2.576,-0.365 4.975,-0.365 6.455,1.104 C6.455,1.104 34.882,29.340 34.882,29.340 C36.361,30.809 36.361,33.192 34.882,34.661 C34.882,34.661 6.455,62.897 6.455,62.897 C5.716,63.632 4.746,64.000 3.776,64.000 Z" id="path-1" class="cls-2" fill-rule="evenodd"/>
</svg>
