<svg xmlns="http://www.w3.org/2000/svg" xmlns:xlink="http://www.w3.org/1999/xlink" preserveAspectRatio="xMidYMid" width="64" height="54" viewBox="0 0 64 54">
  <defs>
    <style>

      .cls-2 {
        fill: #252e33;
      }
    </style>
  </defs>
  <path d="M57.993,53.998 C57.993,53.998 6.007,53.998 6.007,53.998 C2.700,53.998 0.009,51.306 0.009,47.999 C0.009,47.999 0.009,18.001 0.009,18.001 C0.009,15.055 2.118,12.567 5.024,12.085 C5.024,12.085 13.689,10.639 13.689,10.639 C13.689,10.639 16.434,3.772 16.434,3.772 C17.352,1.482 19.539,0.002 22.003,0.002 C22.003,0.002 41.997,0.002 41.997,0.002 C44.461,0.002 46.648,1.482 47.568,3.773 C47.568,3.773 50.311,10.639 50.311,10.639 C50.311,10.639 58.975,12.085 58.975,12.085 C61.882,12.567 63.991,15.055 63.991,18.001 C63.991,18.001 63.991,47.999 63.991,47.999 C63.991,51.306 61.300,53.998 57.993,53.998 ZM59.992,18.001 C59.992,17.023 59.284,16.189 58.321,16.029 C58.321,16.029 47.436,14.215 47.436,14.215 C47.436,14.215 43.855,5.260 43.855,5.260 C43.549,4.501 42.815,4.001 41.997,4.001 C41.997,4.001 22.003,4.001 22.003,4.001 C21.187,4.001 20.453,4.499 20.147,5.260 C20.147,5.260 16.566,14.215 16.566,14.215 C16.566,14.215 5.679,16.029 5.679,16.029 C4.716,16.189 4.008,17.023 4.008,18.001 C4.008,18.001 4.008,47.999 4.008,47.999 C4.008,49.105 4.902,49.999 6.007,49.999 C6.007,49.999 57.993,49.999 57.993,49.999 C59.098,49.999 59.992,49.105 59.992,47.999 C59.992,47.999 59.992,18.001 59.992,18.001 ZM32.000,46.001 C23.167,46.001 16.005,38.837 16.005,30.002 C16.005,21.166 23.167,14.003 32.000,14.003 C40.835,14.003 47.995,21.165 47.995,30.002 C47.995,38.837 40.835,46.001 32.000,46.001 ZM41.105,22.194 C36.797,17.160 29.223,16.581 24.192,20.894 C19.164,25.204 18.582,32.781 22.892,37.811 C27.203,42.843 34.775,43.425 39.806,39.111 C44.838,34.800 45.418,27.225 41.105,22.194 ZM38.998,31.004 C38.446,31.004 37.998,30.554 37.998,30.004 C37.998,30.004 37.998,30.000 37.998,30.000 C37.996,26.688 35.313,24.002 32.000,24.002 C31.448,24.002 31.000,23.555 31.000,23.002 C31.000,22.450 31.448,22.002 32.000,22.002 C36.417,22.002 39.996,25.584 39.998,30.000 C39.998,30.000 39.998,30.004 39.998,30.004 C39.998,30.554 39.550,31.004 38.998,31.004 Z" id="path-1" class="cls-2" fill-rule="evenodd"/>
</svg>
