<svg xmlns="http://www.w3.org/2000/svg" xmlns:xlink="http://www.w3.org/1999/xlink" preserveAspectRatio="xMidYMid" width="64" height="43" viewBox="0 0 64 43">
  <defs>
    <style>

      .cls-2 {
        fill: #252e33;
      }
    </style>
  </defs>
  <path d="M63.901,42.153 C63.872,42.421 63.872,42.742 63.843,43.007 C63.843,43.007 15.942,43.007 15.942,43.007 C15.913,42.554 15.883,42.126 15.825,41.567 C15.678,39.806 15.531,37.965 16.060,36.257 C16.707,34.309 18.385,32.574 22.269,31.481 C22.269,31.481 23.769,31.027 23.769,31.027 C30.595,29.187 34.243,28.145 35.450,25.717 C35.450,25.717 35.832,25.131 35.832,25.131 C35.832,25.131 35.802,24.356 35.802,24.356 C35.714,24.278 35.655,24.251 35.538,24.090 C35.126,23.692 34.713,23.291 34.331,22.838 C31.682,19.636 29.799,14.726 29.799,10.697 C29.799,5.492 33.860,-0.004 39.921,-0.004 C44.658,-0.004 49.749,4.453 49.749,11.043 C49.749,15.285 47.424,20.489 44.246,23.556 C44.040,23.798 43.805,23.957 43.599,24.144 C43.599,24.144 43.217,24.490 43.217,24.490 C43.217,24.490 43.334,24.970 43.334,24.970 C44.158,28.012 47.865,29.052 55.310,31.027 C55.310,31.027 56.841,31.481 56.841,31.481 C60.694,32.574 62.519,34.335 63.312,36.257 C63.312,36.257 63.341,36.257 63.341,36.257 C64.078,38.151 63.990,40.233 63.901,42.153 ZM21.709,27.826 C21.709,27.826 20.679,28.119 20.679,28.119 C17.384,29.000 16.030,30.601 15.471,32.336 C15.471,32.336 0.053,32.336 0.053,32.336 C0.053,29.480 -1.035,25.265 5.143,23.530 C10.705,22.009 13.412,21.367 13.912,19.474 C11.499,17.447 9.556,13.524 9.556,10.215 C9.556,5.573 13.146,2.263 16.706,2.263 C20.295,2.263 24.062,5.331 24.062,9.973 C24.062,13.259 22.297,17.340 20.002,19.420 C19.944,19.499 19.855,19.581 19.797,19.635 C19.797,19.635 20.060,19.635 20.060,19.635 C20.620,21.288 22.974,21.929 27.623,23.211 C29.094,23.423 28.799,24.172 28.947,24.705 C28.360,25.986 26.035,26.625 21.709,27.826 Z" id="path-1" class="cls-2" fill-rule="evenodd"/>
</svg>
