<svg xmlns="http://www.w3.org/2000/svg" xmlns:xlink="http://www.w3.org/1999/xlink" preserveAspectRatio="xMidYMid" width="50" height="64" viewBox="0 0 50 64">
  <defs>
    <style>

      .cls-2 {
        fill: #252e33;
      }
    </style>
  </defs>
  <path d="M29.435,42.606 C29.435,42.606 37.349,35.244 37.349,35.244 C37.349,35.244 37.124,33.747 37.124,33.747 C37.124,33.747 33.977,12.787 33.977,12.787 C33.977,12.787 45.728,10.953 45.728,10.953 C45.728,10.953 49.999,39.399 49.999,39.399 C49.999,39.399 29.435,42.606 29.435,42.606 ZM28.311,35.121 C28.311,35.121 10.685,37.871 10.685,37.871 C10.685,37.871 6.189,7.927 6.189,7.927 C6.189,7.927 31.160,4.033 31.160,4.033 C31.160,4.033 32.284,11.519 32.284,11.519 C32.284,11.519 32.508,13.016 32.508,13.016 C32.508,13.016 35.655,33.976 35.655,33.976 C35.655,33.976 28.311,35.121 28.311,35.121 ZM2.352,4.796 C1.053,4.796 -0.001,3.722 -0.001,2.398 C-0.001,1.073 1.053,-0.000 2.352,-0.000 C3.651,-0.000 4.705,1.073 4.705,2.398 C4.705,3.722 3.651,4.796 2.352,4.796 ZM13.037,63.552 C13.037,63.552 10.099,64.010 10.099,64.010 C10.099,64.010 1.556,7.118 1.556,7.118 C1.556,7.118 4.494,6.660 4.494,6.660 C4.494,6.660 13.037,63.552 13.037,63.552 Z" id="path-1" class="cls-2" fill-rule="evenodd"/>
</svg>
