<svg xmlns="http://www.w3.org/2000/svg" xmlns:xlink="http://www.w3.org/1999/xlink" preserveAspectRatio="xMidYMid" width="63" height="63" viewBox="0 0 63 63">
  <defs>
    <style>

      .cls-2 {
        fill: #252e33;
      }
    </style>
  </defs>
  <path d="M39.982,31.484 C39.982,31.484 61.227,52.729 61.227,52.729 C63.574,55.076 63.574,58.881 61.227,61.227 C58.881,63.574 55.076,63.574 52.729,61.227 C52.729,61.227 31.484,39.982 31.484,39.982 C31.484,39.982 10.240,61.227 10.240,61.227 C7.893,63.574 4.088,63.574 1.742,61.227 C-0.605,58.881 -0.605,55.076 1.742,52.729 C1.742,52.729 22.987,31.484 22.987,31.484 C22.987,31.484 1.742,10.239 1.742,10.239 C-0.605,7.893 -0.605,4.088 1.742,1.742 C4.088,-0.605 7.893,-0.605 10.240,1.742 C10.240,1.742 31.484,22.986 31.484,22.986 C31.484,22.986 52.729,1.742 52.729,1.742 C55.076,-0.605 58.881,-0.605 61.227,1.742 C63.574,4.088 63.574,7.893 61.227,10.239 C61.227,10.239 39.982,31.484 39.982,31.484 Z" id="path-1" class="cls-2" fill-rule="evenodd"/>
</svg>
