<svg xmlns="http://www.w3.org/2000/svg" xmlns:xlink="http://www.w3.org/1999/xlink" preserveAspectRatio="xMidYMid" width="64" height="46" viewBox="0 0 64 46">
  <defs>
    <style>

      .cls-2 {
        fill: #252e33;
      }
    </style>
  </defs>
  <path d="M0.000,46.000 C0.000,46.000 0.000,36.800 0.000,36.800 C0.000,36.800 64.000,36.800 64.000,36.800 C64.000,36.800 64.000,46.000 64.000,46.000 C64.000,46.000 0.000,46.000 0.000,46.000 ZM-0.000,18.400 C-0.000,18.400 64.000,18.400 64.000,18.400 C64.000,18.400 64.000,27.600 64.000,27.600 C64.000,27.600 -0.000,27.600 -0.000,27.600 C-0.000,27.600 -0.000,18.400 -0.000,18.400 ZM-0.000,0.000 C-0.000,0.000 64.000,0.000 64.000,0.000 C64.000,0.000 64.000,9.200 64.000,9.200 C64.000,9.200 -0.000,9.200 -0.000,9.200 C-0.000,9.200 -0.000,0.000 -0.000,0.000 Z" id="path-1" class="cls-2" fill-rule="evenodd"/>
</svg>
