<svg xmlns="http://www.w3.org/2000/svg" xmlns:xlink="http://www.w3.org/1999/xlink" preserveAspectRatio="xMidYMid" width="64" height="64" viewBox="0 0 64 64">
  <defs>
    <style>

      .cls-2 {
        fill: #252e33;
      }
    </style>
  </defs>
  <path d="M31.969,63.937 C14.313,63.937 -0.000,49.625 -0.000,31.968 C-0.000,14.313 14.313,-0.000 31.969,-0.000 C49.625,-0.000 63.938,14.313 63.938,31.968 C63.938,49.625 49.625,63.937 31.969,63.937 ZM31.969,5.114 C17.138,5.114 5.115,17.138 5.115,31.968 C5.115,46.800 17.138,58.822 31.969,58.822 C46.800,58.822 58.823,46.800 58.823,31.968 C58.823,17.138 46.800,5.114 31.969,5.114 ZM32.894,50.721 C32.615,51.057 32.286,51.178 31.969,51.156 C31.652,51.178 31.324,51.056 31.043,50.721 C27.245,46.157 23.446,41.593 19.647,37.029 C18.944,36.186 19.353,34.795 20.572,34.795 C22.166,34.795 23.760,34.795 25.354,34.795 C25.354,27.894 25.354,23.199 25.354,16.295 C25.354,15.582 25.949,14.986 26.663,14.986 C30.201,14.986 33.739,14.986 37.275,14.986 C37.989,14.986 38.584,15.582 38.584,16.295 C38.584,23.199 38.584,27.894 38.584,34.795 C40.178,34.795 41.771,34.795 43.366,34.795 C44.585,34.795 44.994,36.186 44.290,37.029 C40.492,41.593 36.693,46.157 32.894,50.721 Z" id="path-1" class="cls-2" fill-rule="evenodd"/>
</svg>
