<svg xmlns="http://www.w3.org/2000/svg" xmlns:xlink="http://www.w3.org/1999/xlink" preserveAspectRatio="xMidYMid" width="64" height="43" viewBox="0 0 64 43">
  <defs>
    <style>

      .cls-2 {
        fill: #252e33;
      }
    </style>
  </defs>
  <path d="M60.591,42.021 C60.591,42.021 3.412,42.021 3.412,42.021 C1.906,42.021 -0.000,40.111 -0.000,38.201 C-0.000,38.201 -0.000,5.726 -0.000,5.726 C-0.000,5.726 30.119,30.559 30.119,30.559 C30.119,30.559 64.002,5.726 64.002,5.726 C64.002,5.726 64.002,38.201 64.002,38.201 C64.002,40.111 62.096,42.021 60.591,42.021 ZM30.119,24.828 C30.119,24.828 3.764,2.861 3.764,2.861 C1.882,1.292 -0.000,-0.005 3.764,-0.005 C3.764,-0.005 30.119,-0.005 30.119,-0.005 C30.119,-0.005 60.238,-0.005 60.238,-0.005 C64.002,-0.005 62.121,1.292 60.238,2.861 C60.238,2.861 30.119,24.828 30.119,24.828 Z" id="path-1" class="cls-2" fill-rule="evenodd"/>
</svg>
