<svg xmlns="http://www.w3.org/2000/svg" xmlns:xlink="http://www.w3.org/1999/xlink" preserveAspectRatio="xMidYMid" width="64" height="64" viewBox="0 0 64 64">
  <defs>
    <style>

      .cls-2 {
        fill: #252e33;
      }
    </style>
  </defs>
  <path d="M31.998,64.002 C14.352,64.002 -0.004,49.646 -0.004,32.000 C-0.004,14.355 14.352,-0.001 31.998,-0.001 C49.644,-0.001 63.999,14.355 63.999,32.000 C63.999,49.646 49.644,64.002 31.998,64.002 ZM31.998,2.960 C15.985,2.960 2.958,15.987 2.958,32.000 C2.958,48.013 15.985,61.041 31.998,61.041 C48.011,61.041 61.038,48.013 61.038,32.000 C61.038,15.987 48.011,2.960 31.998,2.960 ZM45.500,36.000 C45.500,36.000 36.000,36.000 36.000,36.000 C36.000,36.000 36.000,45.500 36.000,45.500 C36.000,47.433 34.433,49.000 32.500,49.000 C30.567,49.000 29.000,47.433 29.000,45.500 C29.000,45.500 29.000,36.000 29.000,36.000 C29.000,36.000 19.500,36.000 19.500,36.000 C17.567,36.000 16.000,34.433 16.000,32.500 C16.000,30.567 17.567,29.000 19.500,29.000 C19.500,29.000 29.000,29.000 29.000,29.000 C29.000,29.000 29.000,19.500 29.000,19.500 C29.000,17.567 30.567,16.000 32.500,16.000 C34.433,16.000 36.000,17.567 36.000,19.500 C36.000,19.500 36.000,29.000 36.000,29.000 C36.000,29.000 45.500,29.000 45.500,29.000 C47.433,29.000 49.000,30.567 49.000,32.500 C49.000,34.433 47.433,36.000 45.500,36.000 Z" id="path-1" class="cls-2" fill-rule="evenodd"/>
</svg>
