<svg xmlns="http://www.w3.org/2000/svg" xmlns:xlink="http://www.w3.org/1999/xlink" preserveAspectRatio="xMidYMid" width="64" height="53" viewBox="0 0 64 53">
  <defs>
    <style>

      .cls-2 {
        fill: #252e33;
      }
    </style>
  </defs>
  <path d="M15.483,15.420 C15.483,15.420 15.020,15.420 15.020,15.420 C12.840,15.420 11.064,17.314 11.064,19.629 C11.064,19.629 11.064,20.117 11.064,20.117 C11.064,22.433 12.840,24.328 15.020,24.328 C15.020,24.328 15.483,24.328 15.483,24.328 C17.654,24.328 19.434,22.434 19.434,20.117 C19.434,20.117 19.434,19.629 19.434,19.629 C19.434,17.315 17.654,15.420 15.483,15.420 ZM32.228,15.417 C32.228,15.417 31.772,15.417 31.772,15.417 C29.593,15.417 27.808,17.315 27.808,19.624 C27.808,19.624 27.808,20.117 27.808,20.117 C27.808,22.433 29.593,24.328 31.772,24.328 C31.772,24.328 32.228,24.328 32.228,24.328 C34.407,24.328 36.180,22.434 36.180,20.117 C36.180,20.117 36.180,19.624 36.180,19.624 C36.180,17.315 34.408,15.417 32.228,15.417 ZM48.964,15.417 C48.964,15.417 48.508,15.417 48.508,15.417 C46.338,15.417 44.544,17.315 44.544,19.624 C44.544,19.624 44.544,20.117 44.544,20.117 C44.544,22.433 46.338,24.328 48.508,24.328 C48.508,24.328 48.964,24.328 48.964,24.328 C51.143,24.328 52.925,22.434 52.925,20.117 C52.925,20.117 52.925,19.624 52.925,19.624 C52.925,17.315 51.144,15.417 48.964,15.417 ZM64.000,36.592 C64.000,38.366 62.534,39.817 60.756,39.817 C60.756,39.817 52.473,39.817 52.473,39.817 C50.689,39.817 49.429,41.246 49.689,43.000 C49.689,43.000 51.054,51.363 51.054,51.363 C51.307,53.116 50.485,53.528 49.230,52.275 C49.230,52.275 37.805,42.095 37.805,42.095 C36.548,40.838 34.062,39.817 32.277,39.817 C32.277,39.817 3.235,39.817 3.235,39.817 C1.451,39.817 -0.001,38.366 -0.001,36.592 C-0.001,36.592 -0.001,3.223 -0.001,3.223 C-0.001,1.455 1.451,-0.000 3.235,-0.000 C3.235,-0.000 60.756,-0.000 60.756,-0.000 C62.534,-0.000 64.000,1.456 64.000,3.223 C64.000,3.223 64.000,36.592 64.000,36.592 Z" id="path-1" class="cls-2" fill-rule="evenodd"/>
</svg>
