<svg xmlns="http://www.w3.org/2000/svg" xmlns:xlink="http://www.w3.org/1999/xlink" preserveAspectRatio="xMidYMid" width="64" height="39" viewBox="0 0 64 39">
  <defs>
    <style>

      .cls-2 {
        fill: #252e33;
      }
    </style>
  </defs>
  <path d="M61.054,4.700 C60.322,4.700 59.662,4.965 59.152,5.388 C59.152,5.388 59.152,5.376 59.152,5.376 C59.152,5.376 59.013,5.497 59.013,5.497 C59.013,5.497 59.001,5.507 59.001,5.507 C59.001,5.507 50.010,13.322 50.010,13.322 C49.938,13.394 49.859,13.457 49.779,13.523 C49.273,13.932 48.624,14.189 47.905,14.189 C46.305,14.189 45.007,12.960 45.007,11.445 C45.007,11.445 45.007,2.744 45.007,2.744 C45.007,1.229 43.708,0.000 42.108,0.000 C42.108,0.000 2.883,0.000 2.883,0.000 C1.283,0.000 -0.016,1.229 -0.016,2.744 C-0.016,2.744 -0.016,36.255 -0.016,36.255 C-0.016,37.771 1.283,39.000 2.883,39.000 C2.883,39.000 42.108,39.000 42.108,39.000 C43.708,39.000 45.007,37.771 45.007,36.255 C45.007,36.255 45.007,27.556 45.007,27.556 C45.007,26.041 46.305,24.812 47.905,24.812 C48.624,24.812 49.273,25.069 49.779,25.479 C49.859,25.544 49.938,25.608 50.010,25.680 C50.010,25.680 59.001,33.494 59.001,33.494 C59.001,33.494 59.013,33.505 59.013,33.505 C59.013,33.505 59.152,33.625 59.152,33.625 C59.152,33.625 59.152,33.613 59.152,33.613 C59.662,34.036 60.322,34.301 61.054,34.301 C62.654,34.301 63.952,33.072 63.952,31.557 C63.952,31.557 63.952,7.444 63.952,7.444 C63.951,5.929 62.654,4.700 61.054,4.700 Z" id="path-1" class="cls-2" fill-rule="evenodd"/>
</svg>
