<svg xmlns="http://www.w3.org/2000/svg" xmlns:xlink="http://www.w3.org/1999/xlink" preserveAspectRatio="xMidYMid" width="64" height="49" viewBox="0 0 64 49">
  <defs>
    <style>

      .cls-2 {
        fill: #252e33;
      }
    </style>
  </defs>
  <path d="M57.378,24.458 C56.901,16.386 64.000,16.720 64.000,16.720 C63.222,25.374 57.378,24.458 57.378,24.458 ZM57.355,15.567 C54.339,8.238 60.073,4.313 60.073,4.313 C63.945,12.635 57.355,15.567 57.355,15.567 ZM51.740,-0.000 C58.120,3.493 54.336,9.940 54.336,9.940 C47.485,3.968 51.740,-0.000 51.740,-0.000 ZM53.861,15.487 C47.650,15.064 47.566,8.625 47.566,8.625 C54.075,9.703 53.861,15.487 53.861,15.487 ZM53.650,31.394 C46.843,31.567 47.268,22.899 47.268,22.899 C54.117,24.968 53.650,31.394 53.650,31.394 ZM51.458,38.953 C43.940,37.516 45.644,31.113 45.644,31.114 C52.728,32.740 51.458,38.953 51.458,38.953 ZM12.534,39.195 C12.534,39.195 11.266,32.982 18.345,31.356 C18.345,31.355 20.048,37.758 12.534,39.195 ZM10.344,31.636 C10.344,31.636 9.877,25.210 16.722,23.141 C16.722,23.141 17.147,31.809 10.344,31.636 ZM9.452,24.133 C9.452,24.133 9.282,16.715 16.424,16.414 C16.424,16.414 14.044,24.909 9.452,24.133 ZM10.133,15.729 C10.133,15.729 9.919,9.945 16.424,8.867 C16.424,8.867 16.340,15.306 10.133,15.729 ZM12.253,0.242 C12.253,0.242 16.505,4.210 9.658,10.182 C9.658,10.182 5.876,3.735 12.253,0.242 ZM3.924,4.555 C3.924,4.555 9.656,8.480 6.641,15.809 C6.641,15.809 0.054,12.877 3.924,4.555 ZM6.618,24.700 C6.618,24.700 0.777,25.616 0.000,16.962 C0.000,16.962 7.095,16.628 6.618,24.700 ZM7.560,32.693 C0.160,33.513 0.033,26.656 0.033,26.656 C7.135,26.525 7.560,32.693 7.560,32.693 ZM10.153,40.110 C10.153,40.110 4.327,41.619 2.330,35.322 C2.330,35.322 8.494,33.943 10.153,40.110 ZM9.007,11.293 C9.074,11.041 9.331,10.893 9.579,10.964 C9.733,11.008 9.822,11.170 9.780,11.326 C3.577,34.136 18.161,48.300 18.310,48.441 C18.310,48.441 17.795,49.000 17.795,49.000 C17.642,48.858 2.798,34.464 9.007,11.293 ZM47.566,16.172 C54.713,16.473 54.543,23.891 54.543,23.891 C49.947,24.667 47.566,16.172 47.566,16.172 ZM54.215,11.084 C54.172,10.928 54.261,10.766 54.415,10.722 C54.663,10.651 54.920,10.799 54.987,11.051 C61.200,34.222 46.347,48.616 46.194,48.758 C46.194,48.758 45.679,48.199 45.679,48.199 C45.828,48.058 60.421,33.894 54.215,11.084 ZM56.436,32.451 C56.436,32.451 56.861,26.283 63.967,26.414 C63.967,26.414 63.840,33.271 56.436,32.451 ZM61.669,35.080 C59.670,41.377 53.841,39.868 53.841,39.868 C55.500,33.701 61.669,35.080 61.669,35.080 Z" id="path-1" class="cls-2" fill-rule="evenodd"/>
</svg>
