<svg xmlns="http://www.w3.org/2000/svg" xmlns:xlink="http://www.w3.org/1999/xlink" preserveAspectRatio="xMidYMid" width="64" height="36" viewBox="0 0 64 36">
  <defs>
    <style>

      .cls-2 {
        fill: #252e33;
      }
    </style>
  </defs>
  <path d="M64.000,18.037 C64.000,23.039 62.430,27.284 59.215,30.770 C56.075,34.256 52.112,35.999 47.402,35.999 C41.271,35.999 36.037,32.892 31.775,26.677 C29.682,29.405 27.439,31.604 24.822,33.195 C22.280,34.862 19.588,35.696 16.822,35.696 C11.887,35.696 7.850,34.104 4.710,30.846 C1.570,27.587 -0.001,23.267 -0.001,17.810 C-0.001,12.732 1.570,8.488 4.710,5.077 C7.850,1.667 11.887,-0.001 16.747,-0.001 C22.878,-0.001 27.962,3.107 31.925,9.246 C36.261,3.258 41.420,0.227 47.252,0.227 C52.112,0.227 56.149,1.894 59.215,5.153 C62.505,8.336 64.000,12.656 64.000,18.037 ZM17.420,24.934 C20.486,24.934 23.401,22.585 26.093,17.810 C24.747,15.385 23.401,13.641 21.981,12.429 C20.560,11.216 18.990,10.686 17.271,10.686 C15.327,10.686 13.757,11.368 12.560,12.732 C11.364,14.096 10.766,15.839 10.766,17.961 C10.766,20.083 11.364,21.751 12.560,23.039 C13.831,24.252 15.401,24.934 17.420,24.934 ZM46.729,10.913 C43.663,10.913 40.747,13.263 37.981,17.961 C40.747,22.812 43.738,25.237 46.878,25.237 C48.822,25.237 50.392,24.555 51.589,23.115 C52.785,21.675 53.383,20.008 53.383,17.961 C53.383,15.915 52.785,14.248 51.589,12.884 C50.243,11.595 48.673,10.913 46.729,10.913 Z" id="path-1" class="cls-2" fill-rule="evenodd"/>
</svg>
