<svg xmlns="http://www.w3.org/2000/svg" xmlns:xlink="http://www.w3.org/1999/xlink" preserveAspectRatio="xMidYMid" width="54" height="64" viewBox="0 0 54 64">
  <defs>
    <style>

      .cls-2 {
        fill: #252e33;
      }
    </style>
  </defs>
  <path d="M50.114,31.660 C50.114,31.660 50.114,22.829 50.114,22.829 C50.114,16.735 47.711,11.005 43.346,6.697 C38.980,2.387 33.174,0.014 27.000,0.014 C20.827,0.014 15.021,2.387 10.657,6.696 C6.291,11.005 3.887,16.734 3.887,22.828 C3.887,22.828 3.887,31.659 3.887,31.659 C3.887,31.659 0.002,31.659 0.002,31.659 C0.002,31.659 0.002,63.984 0.002,63.984 C0.002,63.984 53.998,63.984 53.998,63.984 C53.998,63.984 53.998,31.659 53.998,31.659 C53.998,31.659 50.114,31.659 50.114,31.659 C50.114,31.659 50.114,31.660 50.114,31.660 ZM30.633,55.106 C30.633,57.120 28.999,58.766 27.000,58.766 C25.002,58.766 23.367,57.119 23.367,55.106 C23.367,55.106 23.367,40.538 23.367,40.538 C23.367,38.525 25.002,36.879 27.000,36.879 C28.999,36.879 30.633,38.526 30.633,40.538 C30.633,40.538 30.633,55.106 30.633,55.106 ZM43.625,31.660 C43.625,31.660 10.376,31.660 10.376,31.660 C10.376,31.660 10.376,22.829 10.376,22.829 C10.376,13.766 17.819,6.419 27.000,6.419 C36.182,6.419 43.625,13.766 43.625,22.829 C43.625,22.829 43.625,31.660 43.625,31.660 Z" id="path-1" class="cls-2" fill-rule="evenodd"/>
</svg>
