<svg xmlns="http://www.w3.org/2000/svg" xmlns:xlink="http://www.w3.org/1999/xlink" preserveAspectRatio="xMidYMid" width="64" height="39" viewBox="0 0 64 39">
  <defs>
    <style>

      .cls-2 {
        fill: #252e33;
      }
    </style>
  </defs>
  <path d="M33.621,0.100 C33.087,0.044 32.547,0.010 32.001,0.010 C31.994,0.010 31.991,0.010 31.991,0.010 C31.991,0.010 31.991,0.010 31.985,0.010 C31.431,0.010 30.887,0.044 30.348,0.100 C9.789,1.065 -0.002,19.505 -0.002,19.505 C-0.002,19.505 10.286,38.992 31.991,38.992 C53.688,38.992 63.970,19.505 63.970,19.505 C63.970,19.505 54.181,1.065 33.621,0.100 ZM26.760,9.658 C29.112,9.658 31.018,11.534 31.018,13.845 C31.018,16.162 29.112,18.043 26.760,18.043 C24.411,18.043 22.507,16.162 22.507,13.845 C22.506,11.534 24.410,9.658 26.760,9.658 ZM31.991,33.452 C18.203,33.452 9.820,24.209 6.447,19.505 C8.474,16.673 12.337,12.196 18.100,9.079 C17.336,10.851 16.918,12.804 16.918,14.847 C16.918,23.044 23.662,29.689 31.985,29.689 C40.312,29.689 47.057,23.044 47.057,14.847 C47.057,12.815 46.637,10.875 45.886,9.110 C51.623,12.230 55.493,16.693 57.524,19.510 C54.153,24.208 45.769,33.452 31.991,33.452 Z" id="path-1" class="cls-2" fill-rule="evenodd"/>
</svg>
