<svg xmlns="http://www.w3.org/2000/svg" xmlns:xlink="http://www.w3.org/1999/xlink" preserveAspectRatio="xMidYMid" width="64" height="51" viewBox="0 0 64 51">
  <defs>
    <style>

      .cls-2 {
        fill: #252e33;
      }
    </style>
  </defs>
  <path d="M62.125,1.409 C62.037,1.397 61.950,1.411 61.861,1.412 C61.832,1.409 61.804,1.413 61.774,1.413 C61.688,1.417 61.603,1.413 61.520,1.428 C60.998,1.462 60.492,1.662 60.107,2.053 C59.141,3.036 56.884,3.680 56.026,3.971 C54.329,4.546 52.743,3.769 50.294,2.453 C47.463,0.932 46.062,-0.961 41.592,0.554 C38.625,1.559 35.061,4.007 31.875,7.970 C26.298,1.228 21.857,-0.990 16.486,0.830 C14.972,1.343 13.639,2.089 12.351,2.810 C11.265,3.417 10.238,3.992 9.269,4.320 C9.269,4.320 9.269,4.320 9.267,4.321 C7.964,4.762 6.364,5.026 3.865,2.562 C3.240,1.945 2.312,1.767 1.493,2.112 C0.999,2.322 0.630,2.712 0.404,3.176 C0.385,3.214 0.369,3.252 0.350,3.291 C0.297,3.422 0.255,3.554 0.228,3.696 C0.219,3.736 0.197,3.771 0.192,3.812 C0.192,3.812 0.005,12.694 0.006,12.792 C0.006,12.792 0.029,46.192 0.029,46.192 C0.035,47.059 0.604,47.819 1.432,48.070 C1.744,48.165 2.162,48.306 2.618,48.459 C4.054,48.943 4.330,49.295 5.100,49.418 C10.448,50.272 14.719,49.089 18.486,48.044 C22.300,46.987 25.371,46.136 28.724,47.559 C28.724,47.559 28.968,48.558 28.968,48.558 C29.182,49.432 29.957,50.050 30.855,50.064 C30.855,50.064 34.082,50.032 34.082,50.032 C34.983,50.005 35.747,49.368 35.948,48.489 C35.948,48.489 36.176,47.492 36.176,47.492 C39.601,46.015 41.298,46.933 45.767,48.028 C51.037,49.318 55.809,50.779 62.671,48.555 C62.680,48.552 62.688,48.550 62.696,48.548 C63.504,48.274 64.049,47.512 64.045,46.656 C64.045,46.656 63.933,11.645 63.933,11.645 C63.932,11.443 63.747,2.772 63.747,2.772 C63.517,2.039 62.884,1.509 62.125,1.409 ZM34.078,12.221 C37.158,8.050 40.513,5.516 42.978,4.681 C45.662,3.771 45.714,4.940 48.234,6.295 C50.864,7.706 55.041,9.308 58.612,8.098 C58.869,8.011 59.123,7.912 59.375,7.799 C59.375,7.799 59.560,36.483 59.560,36.483 C58.824,37.133 56.915,37.574 56.247,37.800 C56.247,37.800 56.247,37.800 56.246,37.801 C54.551,38.375 52.967,37.597 50.522,36.282 C47.693,34.759 46.292,32.864 41.821,34.379 C39.530,35.155 36.389,36.782 33.984,39.308 C33.984,39.308 34.078,12.221 34.078,12.221 ZM10.655,8.447 C10.655,8.447 10.655,8.447 10.655,8.447 C12.003,7.989 13.254,7.290 14.464,6.613 C15.633,5.959 16.737,5.341 17.872,4.957 C19.650,4.354 22.763,3.115 29.730,12.260 C29.730,12.260 29.727,39.339 29.727,39.339 C25.010,34.525 21.371,33.078 16.714,34.656 C15.199,35.170 13.865,35.916 12.576,36.639 C11.488,37.248 10.462,37.823 9.492,38.151 C8.306,38.553 6.874,38.807 4.738,36.982 C4.738,36.982 4.541,8.285 4.541,8.285 C6.497,9.120 8.521,9.170 10.655,8.447 Z" id="path-1" class="cls-2" fill-rule="evenodd"/>
</svg>
