<svg xmlns="http://www.w3.org/2000/svg" xmlns:xlink="http://www.w3.org/1999/xlink" preserveAspectRatio="xMidYMid" width="65" height="46" viewBox="0 0 65 46">
  <defs>
    <style>

      .cls-2 {
        fill: #252e33;
      }
    </style>
  </defs>
  <path d="M30.544,0.533 C32.320,0.057 33.578,-0.698 34.550,1.423 C35.805,4.162 34.229,4.831 32.311,5.881 C32.311,5.881 21.846,12.910 21.846,12.910 C21.846,12.910 21.846,13.053 21.846,13.053 C21.846,13.053 56.799,13.053 56.799,13.053 C58.808,13.053 59.756,14.263 59.756,16.348 C59.756,18.433 58.808,19.369 56.799,19.369 C56.799,19.369 30.959,19.369 30.959,19.369 C30.959,19.369 30.959,21.905 30.959,21.905 C30.959,21.905 61.163,21.905 61.163,21.905 C63.170,21.904 64.052,22.753 64.052,24.836 C64.052,26.921 63.170,28.424 61.163,28.424 C61.163,28.424 30.959,28.424 30.959,28.424 C30.959,28.424 30.959,30.686 30.959,30.686 C30.959,30.686 56.799,30.686 56.799,30.686 C58.808,30.686 59.892,31.828 59.892,33.912 C59.892,35.996 58.808,37.480 56.799,37.480 C56.799,37.480 28.777,37.480 28.777,37.480 C28.777,37.480 28.777,39.331 28.777,39.331 C28.777,39.331 43.708,39.331 43.708,39.331 C45.716,39.331 46.935,40.610 46.935,42.694 C46.935,44.777 45.716,45.988 42.617,45.988 C42.617,45.988 18.914,45.988 18.914,45.988 C9.446,45.984 0.008,36.738 0.005,24.651 C0.008,12.563 10.298,7.708 21.097,4.131 C21.097,4.131 21.097,4.130 21.097,4.130 C21.097,4.130 30.544,0.533 30.544,0.533 Z" id="path-1" class="cls-2" fill-rule="evenodd"/>
</svg>
