<svg xmlns="http://www.w3.org/2000/svg" xmlns:xlink="http://www.w3.org/1999/xlink" preserveAspectRatio="xMidYMid" width="64" height="54" viewBox="0 0 64 54">
  <defs>
    <style>

      .cls-2 {
        fill: #252e33;
      }
    </style>
  </defs>
  <path d="M46.506,-0.002 C45.767,-0.002 44.783,-0.002 43.798,0.243 C38.876,0.979 34.445,6.216 31.984,10.141 C29.277,6.216 25.092,0.979 20.170,0.243 C19.186,-0.002 18.201,-0.002 17.462,-0.002 C7.864,-0.002 -0.013,7.601 -0.013,16.921 C-0.013,17.657 -0.013,18.393 0.234,19.373 C0.726,23.052 2.449,26.241 5.156,28.938 C5.156,28.938 31.984,53.955 31.984,53.955 C31.984,53.955 58.812,28.938 58.812,28.938 C61.519,26.486 63.242,23.052 63.734,19.373 C63.981,18.393 63.981,17.657 63.981,16.921 C63.981,7.601 56.104,-0.002 46.506,-0.002 Z" id="path-1" class="cls-2" fill-rule="evenodd"/>
</svg>
