<svg xmlns="http://www.w3.org/2000/svg" xmlns:xlink="http://www.w3.org/1999/xlink" preserveAspectRatio="xMidYMid" width="64" height="63" viewBox="0 0 64 63">
  <defs>
    <style>

      .cls-2 {
        fill: #252e33;
      }
    </style>
  </defs>
  <path d="M57.546,62.974 C57.546,62.974 6.388,62.974 6.388,62.974 C2.871,62.974 -0.007,60.073 -0.007,56.529 C-0.007,56.529 -0.007,22.866 -0.007,22.866 C-0.007,20.610 1.272,18.677 3.190,17.388 C3.190,17.388 31.967,-0.013 31.967,-0.013 C31.967,-0.013 60.743,17.388 60.743,17.388 C62.662,18.355 63.941,20.610 63.941,22.866 C63.941,22.866 63.941,56.529 63.941,56.529 C63.941,60.073 61.063,62.974 57.546,62.974 ZM6.625,22.723 C6.625,22.723 31.967,41.879 31.967,41.879 C31.967,41.879 57.309,22.723 57.309,22.723 C57.309,22.723 31.967,7.398 31.967,7.398 C31.967,7.398 6.625,22.723 6.625,22.723 Z" id="path-1" class="cls-2" fill-rule="evenodd"/>
</svg>
