<svg xmlns="http://www.w3.org/2000/svg" xmlns:xlink="http://www.w3.org/1999/xlink" preserveAspectRatio="xMidYMid" width="63" height="64" viewBox="0 0 63 64">
  <defs>
    <style>

      .cls-2 {
        fill: #252e33;
      }
    </style>
  </defs>
  <path d="M38.327,25.022 C38.327,25.022 31.483,-0.006 31.483,-0.006 C31.483,-0.006 24.637,25.022 24.637,25.022 C24.637,25.022 -0.006,31.973 -0.006,31.973 C-0.006,31.973 24.637,38.929 24.637,38.929 C24.637,38.929 31.483,63.955 31.483,63.955 C31.483,63.955 38.327,38.929 38.327,38.929 C38.327,38.929 62.973,31.973 62.973,31.973 C62.973,31.973 38.327,25.022 38.327,25.022 ZM31.467,37.287 C28.573,37.287 26.224,34.902 26.224,31.958 C26.224,29.018 28.573,26.634 31.467,26.634 C34.365,26.634 36.714,29.018 36.714,31.958 C36.715,34.902 34.365,37.287 31.467,37.287 Z" id="path-1" class="cls-2" fill-rule="evenodd"/>
</svg>
