<svg xmlns="http://www.w3.org/2000/svg" xmlns:xlink="http://www.w3.org/1999/xlink" preserveAspectRatio="xMidYMid" width="25" height="64" viewBox="0 0 25 64">
  <defs>
    <style>

      .cls-2 {
        fill: #252e33;
      }
    </style>
  </defs>
  <path d="M12.464,37.681 C12.464,37.681 7.584,37.688 7.584,37.688 C7.584,37.688 5.744,12.492 5.744,12.492 C5.744,12.492 12.464,-0.000 12.464,-0.000 C12.464,-0.000 19.255,12.492 19.255,12.492 C19.255,12.492 17.345,37.689 17.345,37.689 C17.345,37.689 12.464,37.681 12.464,37.681 ZM24.939,41.441 C24.939,41.441 24.939,45.140 24.939,45.140 C24.939,45.140 15.379,45.140 15.379,45.140 C15.379,45.140 15.379,55.553 15.379,55.553 C16.377,56.423 17.454,57.847 17.454,59.238 C17.455,61.866 15.221,63.996 12.464,63.995 C9.707,63.996 7.476,61.865 7.477,59.239 C7.477,57.848 8.489,56.422 9.487,55.552 C9.487,55.552 9.488,45.141 9.488,45.141 C9.488,45.141 -0.010,45.141 -0.010,45.141 C-0.010,45.141 -0.011,41.440 -0.011,41.440 C-0.011,41.440 12.465,41.388 12.465,41.388 C12.465,41.388 24.939,41.441 24.939,41.441 Z" id="path-1" class="cls-2" fill-rule="evenodd"/>
</svg>
