<svg xmlns="http://www.w3.org/2000/svg" xmlns:xlink="http://www.w3.org/1999/xlink" preserveAspectRatio="xMidYMid" width="53" height="64" viewBox="0 0 53 64">
  <defs>
    <style>

      .cls-2 {
        fill: #252e33;
      }
    </style>
  </defs>
  <path d="M52.559,37.902 C51.815,51.413 27.906,63.298 26.888,63.798 C26.888,63.798 26.474,64.001 26.474,64.001 C26.474,64.001 26.059,63.798 26.059,63.798 C25.042,63.298 1.133,51.413 0.388,37.902 C-0.258,26.188 0.053,8.920 0.056,8.747 C0.056,8.747 0.064,8.304 0.064,8.304 C0.064,8.304 0.406,8.024 0.406,8.024 C0.808,7.696 10.418,-0.003 26.474,-0.003 C42.530,-0.003 52.142,7.696 52.543,8.024 C52.543,8.024 52.885,8.304 52.885,8.304 C52.885,8.304 52.893,8.747 52.893,8.747 C52.896,8.920 53.206,26.188 52.559,37.902 ZM51.008,9.247 C49.183,7.913 40.191,1.904 26.474,1.904 C12.757,1.904 3.766,7.913 1.941,9.247 C1.896,12.078 1.695,27.227 2.278,37.796 C2.911,49.289 23.290,60.232 26.474,61.872 C29.656,60.232 50.036,49.283 50.671,37.796 C51.253,27.226 51.052,12.078 51.008,9.247 ZM27.201,43.940 C21.933,43.939 17.904,39.765 17.902,35.577 C17.902,35.577 17.902,25.094 17.902,25.094 C17.902,23.724 18.430,22.884 19.338,22.884 C20.246,22.884 20.803,23.724 20.803,24.612 C20.803,24.612 20.803,31.215 20.803,31.215 C20.803,31.215 21.610,31.215 21.610,31.215 C21.610,31.215 21.610,18.822 21.610,18.822 C21.610,17.934 22.257,17.214 23.165,17.214 C24.073,17.214 24.571,17.934 24.571,18.822 C24.571,18.822 24.571,30.250 24.571,30.250 C24.571,30.250 25.556,30.250 25.556,30.250 C25.556,30.250 25.556,16.892 25.556,16.892 C25.556,16.004 26.054,15.284 26.962,15.284 C27.870,15.284 28.397,16.004 28.397,16.892 C28.397,16.892 28.397,30.250 28.397,30.250 C28.397,30.250 29.502,30.250 29.502,30.250 C29.502,30.250 29.502,18.822 29.502,18.822 C29.502,17.934 29.910,17.214 30.819,17.214 C31.727,17.214 32.254,17.934 32.254,18.822 C32.254,18.822 32.254,34.281 32.254,34.281 C32.254,34.281 33.210,34.281 33.210,34.281 C33.210,34.281 33.210,28.964 33.210,28.964 C33.210,28.076 33.678,27.356 34.586,27.356 C35.495,27.356 36.081,27.593 36.081,28.964 C36.081,28.964 36.082,34.612 36.082,34.612 C36.082,34.612 36.081,34.612 36.081,34.612 C36.080,39.765 32.468,43.939 27.201,43.940 Z" id="path-1" class="cls-2" fill-rule="evenodd"/>
</svg>
