<svg xmlns="http://www.w3.org/2000/svg" xmlns:xlink="http://www.w3.org/1999/xlink" preserveAspectRatio="xMidYMid" width="53" height="64" viewBox="0 0 53 64">
  <defs>
    <style>

      .cls-2 {
        fill: #252e33;
      }
    </style>
  </defs>
  <path d="M52.559,37.902 C51.815,51.413 27.906,63.298 26.888,63.798 C26.888,63.798 26.474,64.001 26.474,64.001 C26.474,64.001 26.059,63.798 26.059,63.798 C25.042,63.298 1.133,51.413 0.388,37.902 C-0.258,26.188 0.053,8.920 0.056,8.747 C0.056,8.747 0.064,8.304 0.064,8.304 C0.064,8.304 0.406,8.024 0.406,8.024 C0.808,7.696 10.418,-0.003 26.474,-0.003 C42.530,-0.003 52.142,7.696 52.543,8.024 C52.543,8.024 52.885,8.304 52.885,8.304 C52.885,8.304 52.893,8.747 52.893,8.747 C52.896,8.920 53.206,26.188 52.559,37.902 ZM51.008,9.247 C49.183,7.913 40.191,1.904 26.474,1.904 C12.757,1.904 3.766,7.913 1.941,9.247 C1.896,12.078 1.695,27.227 2.278,37.796 C2.911,49.289 23.290,60.232 26.474,61.872 C29.656,60.232 50.036,49.283 50.671,37.796 C51.253,27.226 51.052,12.078 51.008,9.247 ZM26.996,38.746 C15.942,38.746 10.703,28.659 10.703,28.659 C10.703,28.659 15.689,19.114 26.159,18.614 C26.434,18.585 26.711,18.567 26.993,18.567 C26.996,18.567 26.996,18.567 26.996,18.567 C26.996,18.567 26.997,18.567 27.001,18.567 C27.279,18.567 27.554,18.585 27.826,18.614 C38.297,19.114 43.282,28.659 43.282,28.659 C43.282,28.659 38.046,38.746 26.996,38.746 ZM24.331,23.562 C23.135,23.562 22.165,24.533 22.166,25.729 C22.166,26.928 23.135,27.902 24.331,27.902 C25.529,27.902 26.500,26.928 26.500,25.729 C26.500,24.533 25.529,23.562 24.331,23.562 ZM34.072,23.278 C34.455,24.192 34.668,25.196 34.668,26.248 C34.668,30.491 31.233,33.930 26.993,33.930 C22.754,33.930 19.319,30.491 19.319,26.248 C19.319,25.190 19.532,24.179 19.921,23.262 C16.986,24.876 15.019,27.193 13.987,28.659 C15.705,31.094 19.974,35.878 26.996,35.878 C34.013,35.878 38.282,31.093 39.999,28.661 C38.965,27.204 36.994,24.893 34.072,23.278 Z" id="path-1" class="cls-2" fill-rule="evenodd"/>
</svg>
