<svg xmlns="http://www.w3.org/2000/svg" xmlns:xlink="http://www.w3.org/1999/xlink" preserveAspectRatio="xMidYMid" width="53" height="64" viewBox="0 0 53 64">
  <defs>
    <style>

      .cls-2 {
        fill: #252e33;
      }
    </style>
  </defs>
  <path d="M52.559,37.902 C51.815,51.413 27.906,63.298 26.888,63.798 C26.888,63.798 26.474,64.001 26.474,64.001 C26.474,64.001 26.059,63.798 26.059,63.798 C25.042,63.298 1.133,51.413 0.388,37.902 C-0.258,26.188 0.053,8.920 0.056,8.747 C0.056,8.747 0.064,8.304 0.064,8.304 C0.064,8.304 0.406,8.024 0.406,8.024 C0.808,7.696 10.418,-0.003 26.474,-0.003 C42.530,-0.003 52.142,7.696 52.543,8.024 C52.543,8.024 52.885,8.304 52.885,8.304 C52.885,8.304 52.893,8.747 52.893,8.747 C52.896,8.920 53.206,26.188 52.559,37.902 ZM51.008,9.247 C49.183,7.913 40.191,1.904 26.474,1.904 C12.757,1.904 3.766,7.913 1.941,9.247 C1.896,12.078 1.695,27.227 2.278,37.796 C2.911,49.289 23.290,60.232 26.474,61.872 C29.656,60.232 50.036,49.283 50.671,37.796 C51.253,27.226 51.052,12.078 51.008,9.247 ZM36.519,40.127 C36.519,40.127 16.511,40.127 16.511,40.127 C15.135,40.127 14.009,39.000 14.009,37.624 C14.009,37.624 14.009,24.549 14.009,24.549 C14.009,23.673 14.510,22.922 15.260,22.422 C15.260,22.422 26.515,15.663 26.515,15.663 C26.515,15.663 37.770,22.422 37.770,22.422 C38.520,22.797 39.020,23.673 39.020,24.549 C39.020,24.549 39.020,37.624 39.020,37.624 C39.020,39.000 37.895,40.127 36.519,40.127 ZM26.515,18.542 C26.515,18.542 16.603,24.494 16.603,24.494 C16.603,24.494 26.515,31.934 26.515,31.934 C26.515,31.934 36.427,24.494 36.427,24.494 C36.427,24.494 26.515,18.542 26.515,18.542 Z" id="path-1" class="cls-2" fill-rule="evenodd"/>
</svg>
