<svg xmlns="http://www.w3.org/2000/svg" xmlns:xlink="http://www.w3.org/1999/xlink" preserveAspectRatio="xMidYMid" width="53" height="64" viewBox="0 0 53 64">
  <defs>
    <style>

      .cls-2 {
        fill: #252e33;
      }
    </style>
  </defs>
  <path d="M52.559,37.902 C51.815,51.413 27.906,63.298 26.888,63.798 C26.888,63.798 26.474,64.001 26.474,64.001 C26.474,64.001 26.059,63.798 26.059,63.798 C25.042,63.298 1.133,51.413 0.388,37.902 C-0.258,26.188 0.053,8.920 0.056,8.747 C0.056,8.747 0.064,8.304 0.064,8.304 C0.064,8.304 0.406,8.024 0.406,8.024 C0.808,7.696 10.418,-0.003 26.474,-0.003 C42.530,-0.003 52.142,7.696 52.543,8.024 C52.543,8.024 52.885,8.304 52.885,8.304 C52.885,8.304 52.893,8.747 52.893,8.747 C52.896,8.920 53.206,26.188 52.559,37.902 ZM51.008,9.247 C49.183,7.913 40.191,1.904 26.474,1.904 C12.757,1.904 3.766,7.913 1.941,9.247 C1.896,12.078 1.695,27.227 2.278,37.796 C2.911,49.289 23.290,60.232 26.474,61.872 C29.656,60.232 50.036,49.283 50.671,37.796 C51.253,27.226 51.052,12.078 51.008,9.247 ZM26.992,44.212 C26.992,44.212 23.821,32.787 23.821,32.787 C23.821,32.787 12.403,29.611 12.403,29.611 C12.403,29.611 23.821,26.438 23.821,26.438 C23.821,26.438 26.992,15.012 26.992,15.012 C26.992,15.012 30.163,26.438 30.163,26.438 C30.163,26.438 41.581,29.611 41.581,29.611 C41.581,29.611 30.163,32.787 30.163,32.787 C30.163,32.787 26.992,44.212 26.992,44.212 ZM26.985,27.174 C25.644,27.174 24.556,28.262 24.556,29.605 C24.556,30.948 25.644,32.037 26.985,32.037 C28.328,32.037 29.416,30.948 29.415,29.605 C29.415,28.262 28.328,27.174 26.985,27.174 Z" id="path-1" class="cls-2" fill-rule="evenodd"/>
</svg>
