<svg xmlns="http://www.w3.org/2000/svg" xmlns:xlink="http://www.w3.org/1999/xlink" preserveAspectRatio="xMidYMid" width="53" height="64" viewBox="0 0 53 64">
  <defs>
    <style>

      .cls-2 {
        fill: #252e33;
      }
    </style>
  </defs>
  <path d="M52.559,37.902 C51.815,51.413 27.906,63.298 26.888,63.798 C26.888,63.798 26.474,64.001 26.474,64.001 C26.474,64.001 26.059,63.798 26.059,63.798 C25.042,63.298 1.133,51.413 0.388,37.902 C-0.258,26.188 0.053,8.920 0.056,8.747 C0.056,8.747 0.064,8.304 0.064,8.304 C0.064,8.304 0.406,8.024 0.406,8.024 C0.808,7.696 10.418,-0.003 26.474,-0.003 C42.530,-0.003 52.142,7.696 52.543,8.024 C52.543,8.024 52.885,8.304 52.885,8.304 C52.885,8.304 52.893,8.747 52.893,8.747 C52.896,8.920 53.206,26.188 52.559,37.902 ZM51.008,9.247 C49.183,7.913 40.191,1.904 26.474,1.904 C12.757,1.904 3.766,7.913 1.941,9.247 C1.896,12.078 1.695,27.227 2.278,37.796 C2.911,49.289 23.290,60.232 26.474,61.872 C29.656,60.232 50.036,49.283 50.671,37.796 C51.253,27.226 51.052,12.078 51.008,9.247 ZM37.037,31.303 C37.037,31.303 26.990,40.714 26.990,40.714 C26.990,40.714 16.943,31.303 16.943,31.303 C15.929,30.289 15.284,29.089 15.099,27.705 C15.007,27.336 15.007,27.060 15.007,26.783 C15.007,23.277 17.957,20.417 21.552,20.417 C21.828,20.417 22.197,20.417 22.566,20.510 C24.409,20.786 25.976,22.756 26.990,24.232 C27.912,22.756 29.571,20.786 31.415,20.510 C31.783,20.417 32.152,20.417 32.429,20.417 C36.023,20.417 38.973,23.277 38.973,26.783 C38.973,27.060 38.973,27.336 38.881,27.705 C38.697,29.089 38.051,30.381 37.037,31.303 Z" id="path-1" class="cls-2" fill-rule="evenodd"/>
</svg>
