<svg xmlns="http://www.w3.org/2000/svg" xmlns:xlink="http://www.w3.org/1999/xlink" preserveAspectRatio="xMidYMid" width="53" height="64" viewBox="0 0 53 64">
  <defs>
    <style>

      .cls-2 {
        fill: #252e33;
      }
    </style>
  </defs>
  <path d="M52.559,37.902 C51.815,51.413 27.906,63.298 26.888,63.798 C26.888,63.798 26.474,64.001 26.474,64.001 C26.474,64.001 26.059,63.798 26.059,63.798 C25.042,63.298 1.133,51.413 0.388,37.902 C-0.258,26.188 0.053,8.920 0.056,8.747 C0.056,8.747 0.064,8.304 0.064,8.304 C0.064,8.304 0.406,8.024 0.406,8.024 C0.808,7.696 10.418,-0.003 26.474,-0.003 C42.530,-0.003 52.142,7.696 52.543,8.024 C52.543,8.024 52.885,8.304 52.885,8.304 C52.885,8.304 52.893,8.747 52.893,8.747 C52.896,8.920 53.206,26.188 52.559,37.902 ZM51.008,9.247 C49.183,7.913 40.191,1.904 26.474,1.904 C12.757,1.904 3.766,7.913 1.941,9.247 C1.896,12.078 1.695,27.227 2.278,37.796 C2.911,49.289 23.290,60.232 26.474,61.872 C29.656,60.232 50.036,49.283 50.671,37.796 C51.253,27.226 51.052,12.078 51.008,9.247 ZM28.747,39.207 C28.152,39.802 27.360,40.129 26.515,40.129 C25.670,40.129 24.877,39.802 24.282,39.207 C24.282,39.207 12.409,27.324 12.409,27.324 C11.814,26.728 11.486,25.935 11.486,25.090 C11.486,24.244 11.814,23.450 12.408,22.855 C12.408,22.855 16.380,18.881 16.380,18.881 C17.346,17.913 19.106,17.184 20.472,17.184 C20.472,17.184 23.478,17.184 23.478,17.184 C23.481,17.184 23.483,17.184 23.486,17.184 C23.486,17.184 29.844,17.184 29.844,17.184 C29.847,17.184 29.849,17.184 29.853,17.184 C29.853,17.184 32.557,17.184 32.557,17.184 C33.924,17.184 35.683,17.913 36.650,18.881 C36.650,18.881 40.621,22.855 40.621,22.855 C41.216,23.450 41.543,24.244 41.543,25.089 C41.543,25.935 41.216,26.728 40.621,27.324 C40.621,27.324 28.747,39.207 28.747,39.207 ZM38.605,25.772 C38.605,25.772 33.365,25.772 33.365,25.772 C33.365,25.772 29.345,35.245 29.345,35.245 C29.345,35.245 38.605,25.772 38.605,25.772 ZM26.515,35.758 C26.515,35.758 30.525,25.772 30.525,25.772 C30.525,25.772 22.505,25.772 22.505,25.772 C22.505,25.772 26.515,35.758 26.515,35.758 ZM23.685,35.211 C23.685,35.211 19.665,25.772 19.665,25.772 C19.665,25.772 14.356,25.772 14.356,25.772 C14.356,25.772 23.685,35.211 23.685,35.211 ZM19.722,19.131 C19.042,19.131 17.945,20.235 17.464,20.716 C17.464,20.716 14.391,23.792 14.391,23.792 C14.391,23.792 19.665,23.792 19.665,23.792 C19.665,23.792 21.456,19.131 21.456,19.131 C21.456,19.131 19.722,19.131 19.722,19.131 ZM29.541,19.131 C29.541,19.131 23.683,19.131 23.683,19.131 C23.683,19.131 21.892,23.792 21.892,23.792 C21.892,23.792 31.175,23.792 31.175,23.792 C31.175,23.792 29.541,19.131 29.541,19.131 ZM35.601,20.716 C35.120,20.235 34.023,19.131 33.342,19.131 C33.342,19.131 31.761,19.131 31.761,19.131 C31.761,19.131 33.396,23.792 33.396,23.792 C33.396,23.792 38.674,23.792 38.674,23.792 C38.674,23.792 35.601,20.716 35.601,20.716 Z" id="path-1" class="cls-2" fill-rule="evenodd"/>
</svg>
