<svg xmlns="http://www.w3.org/2000/svg" xmlns:xlink="http://www.w3.org/1999/xlink" preserveAspectRatio="xMidYMid" width="49" height="64" viewBox="0 0 49 64">
  <defs>
    <style>

      .cls-2 {
        fill: #252e33;
      }
    </style>
  </defs>
  <path d="M25.970,0.014 C32.699,0.014 38.220,2.093 42.532,6.248 C46.844,10.404 49.000,15.317 49.000,20.989 C49.000,28.310 47.171,34.346 43.512,39.094 C39.853,43.844 35.149,46.219 29.400,46.219 C27.505,46.219 25.709,45.758 24.010,44.834 C22.311,43.911 21.135,42.822 20.482,41.569 C19.110,47.241 18.261,50.605 17.934,51.661 C16.889,55.485 14.700,59.509 11.368,63.731 C10.976,64.125 10.715,64.060 10.584,63.532 C9.800,57.926 9.833,53.276 10.682,49.582 C10.682,49.582 15.288,29.499 15.288,29.499 C14.504,27.981 14.112,26.068 14.112,23.759 C14.112,21.056 14.798,18.797 16.170,16.983 C17.542,15.169 19.208,14.261 21.168,14.261 C22.736,14.261 23.945,14.773 24.794,15.795 C25.643,16.818 26.068,18.121 26.068,19.703 C26.068,20.693 25.888,21.896 25.529,23.315 C25.170,24.733 24.696,26.381 24.108,28.262 C23.520,30.140 23.095,31.642 22.834,32.764 C22.377,34.676 22.736,36.341 23.912,37.759 C25.088,39.177 26.656,39.886 28.616,39.886 C31.948,39.886 34.692,37.974 36.848,34.149 C39.004,30.323 40.082,25.706 40.082,20.297 C40.082,16.142 38.759,12.761 36.113,10.157 C33.467,7.550 29.759,6.248 24.990,6.248 C19.633,6.248 15.304,7.978 12.005,11.442 C8.706,14.905 7.056,19.044 7.056,23.859 C7.056,26.695 7.873,29.102 9.506,31.081 C10.029,31.741 10.192,32.401 9.996,33.060 C9.931,33.192 9.849,33.538 9.751,34.099 C9.653,34.658 9.571,35.055 9.506,35.286 C9.441,35.517 9.310,35.863 9.114,36.325 C8.918,36.786 8.689,37.000 8.428,36.968 C8.167,36.935 7.840,36.919 7.448,36.919 C2.483,34.874 -0.000,30.224 -0.000,22.968 C-0.000,17.164 2.319,11.887 6.958,7.139 C11.597,2.390 17.934,0.014 25.970,0.014 Z" id="path-1" class="cls-2" fill-rule="evenodd"/>
</svg>
