<svg xmlns="http://www.w3.org/2000/svg" xmlns:xlink="http://www.w3.org/1999/xlink" preserveAspectRatio="xMidYMid" width="64" height="52" viewBox="0 0 64 52">
  <defs>
    <style>

      .cls-2 {
        fill: #252e33;
      }
    </style>
  </defs>
  <path d="M-0.003,27.325 C-0.003,27.325 -0.003,52.003 -0.003,52.003 C-0.003,52.003 26.949,52.003 26.949,52.003 C26.949,52.003 26.949,27.325 26.949,27.325 C26.949,27.325 11.293,27.325 11.293,27.325 C11.293,19.028 18.632,11.281 26.949,11.281 C26.949,11.281 26.949,0.014 26.949,0.014 C12.392,0.014 -0.003,12.804 -0.003,27.325 ZM64.002,11.281 C64.002,11.281 64.002,0.014 64.002,0.014 C49.446,0.014 36.902,12.804 36.902,27.325 C36.902,27.325 36.902,52.003 36.902,52.003 C36.902,52.003 64.002,52.003 64.002,52.003 C64.002,52.003 64.002,27.325 64.002,27.325 C64.002,27.325 48.942,27.325 48.942,27.325 C48.942,19.028 55.686,11.281 64.002,11.281 Z" id="path-1" class="cls-2" fill-rule="evenodd"/>
</svg>
