<svg xmlns="http://www.w3.org/2000/svg" xmlns:xlink="http://www.w3.org/1999/xlink" preserveAspectRatio="xMidYMid" width="64" height="52" viewBox="0 0 64 52">
  <defs>
    <style>

      .cls-2 {
        fill: #252e33;
      }
    </style>
  </defs>
  <path d="M64.003,24.675 C64.003,24.675 64.003,-0.003 64.003,-0.003 C64.003,-0.003 37.051,-0.003 37.051,-0.003 C37.051,-0.003 37.051,24.675 37.051,24.675 C37.051,24.675 52.707,24.675 52.707,24.675 C52.707,32.972 45.368,40.719 37.051,40.719 C37.051,40.719 37.051,51.986 37.051,51.986 C51.608,51.986 64.003,39.196 64.003,24.675 ZM-0.002,40.719 C-0.002,40.719 -0.002,51.986 -0.002,51.986 C14.554,51.986 27.098,39.196 27.098,24.675 C27.098,24.675 27.098,-0.003 27.098,-0.003 C27.098,-0.003 -0.002,-0.003 -0.002,-0.003 C-0.002,-0.003 -0.002,24.675 -0.002,24.675 C-0.002,24.675 15.058,24.675 15.058,24.675 C15.058,32.972 8.314,40.719 -0.002,40.719 Z" id="path-1" class="cls-2" fill-rule="evenodd"/>
</svg>
