<svg xmlns="http://www.w3.org/2000/svg" xmlns:xlink="http://www.w3.org/1999/xlink" preserveAspectRatio="xMidYMid" width="64" height="47" viewBox="0 0 64 47">
  <defs>
    <style>

      .cls-2 {
        fill: #252e33;
      }
    </style>
  </defs>
  <path d="M0.196,7.545 C5.094,18.147 15.097,32.235 34.007,33.991 C36.207,34.214 37.932,36.067 38.005,38.341 C38.009,38.392 38.009,38.443 38.009,38.500 C38.009,38.552 38.009,38.598 38.005,38.650 C38.005,38.650 38.005,44.983 38.005,44.983 C38.005,44.983 38.009,44.983 38.009,44.983 C38.009,46.097 38.897,47.000 39.989,47.000 C40.468,47.000 40.906,46.825 41.248,46.537 C41.270,46.520 41.293,46.498 41.318,46.477 C41.318,46.477 62.369,27.341 62.369,27.341 C62.371,27.337 62.374,27.337 62.379,27.332 C62.379,27.332 62.637,27.096 62.637,27.096 C63.480,26.269 64.000,25.113 64.000,23.833 C64.000,22.711 63.596,21.680 62.929,20.888 C62.929,20.888 62.166,20.168 62.166,20.168 C62.166,20.168 41.389,0.591 41.389,0.591 C41.360,0.562 41.334,0.531 41.306,0.506 C40.953,0.189 40.493,-0.000 39.988,-0.000 C38.896,-0.000 38.008,0.899 38.008,2.012 C38.008,2.012 38.004,2.012 38.004,2.012 C38.004,2.012 38.004,9.934 38.004,9.934 C38.008,9.985 38.008,10.036 38.008,10.088 C38.008,10.139 38.008,10.190 38.004,10.241 C37.924,12.674 35.962,14.617 33.553,14.617 C33.553,14.617 33.553,14.626 33.553,14.626 C21.407,14.377 11.479,12.807 3.535,5.425 C3.535,5.425 3.535,5.425 3.530,5.425 C3.385,5.283 3.234,5.147 3.088,5.004 C3.084,5.000 3.084,5.000 3.084,5.000 C2.767,4.786 2.388,4.657 1.979,4.657 C0.884,4.657 -0.000,5.557 -0.000,6.669 C0.001,6.989 0.067,7.280 0.196,7.545 Z" id="path-1" class="cls-2" fill-rule="evenodd"/>
</svg>
