<svg xmlns="http://www.w3.org/2000/svg" xmlns:xlink="http://www.w3.org/1999/xlink" preserveAspectRatio="xMidYMid" width="45" height="64" viewBox="0 0 45 64">
  <defs>
    <style>

      .cls-2 {
        fill: #252e33;
      }
    </style>
  </defs>
  <path d="M42.362,56.281 C42.362,56.281 37.140,56.281 37.140,56.281 C35.683,56.281 34.502,55.111 34.502,53.668 C34.502,52.224 35.683,51.054 37.140,51.054 C37.140,51.054 39.724,51.054 39.724,51.054 C39.724,51.054 39.724,12.340 39.724,12.340 C39.724,12.340 32.544,5.227 32.544,5.227 C32.544,5.227 5.276,5.227 5.276,5.227 C5.276,5.227 5.276,51.054 5.276,51.054 C5.276,51.054 8.109,51.054 8.109,51.054 C9.566,51.054 10.747,52.224 10.747,53.668 C10.747,55.111 9.566,56.281 8.109,56.281 C8.109,56.281 2.638,56.281 2.638,56.281 C1.181,56.281 -0.000,55.111 -0.000,53.668 C-0.000,53.668 -0.000,2.613 -0.000,2.613 C-0.000,1.170 1.181,-0.000 2.638,-0.000 C2.638,-0.000 33.637,-0.000 33.637,-0.000 C34.337,-0.000 35.008,0.275 35.503,0.766 C35.503,0.766 44.228,9.409 44.228,9.409 C44.722,9.899 45.000,10.564 45.000,11.257 C45.000,11.257 45.000,53.668 45.000,53.668 C45.000,55.111 43.819,56.281 42.362,56.281 ZM22.500,34.365 C27.158,34.365 30.934,38.106 30.934,42.721 C30.934,45.486 29.573,47.931 27.484,49.452 C27.484,49.452 27.484,64.000 27.484,64.000 C27.484,64.000 22.500,60.553 22.500,60.553 C22.500,60.553 17.516,64.000 17.516,64.000 C17.516,64.000 17.516,49.452 17.516,49.452 C15.427,47.932 14.065,45.486 14.065,42.721 C14.065,38.106 17.841,34.365 22.500,34.365 ZM22.500,45.850 C24.241,45.850 25.658,44.447 25.658,42.721 C25.658,40.996 24.241,39.592 22.500,39.592 C20.758,39.592 19.341,40.996 19.341,42.721 C19.341,44.447 20.758,45.850 22.500,45.850 Z" id="path-1" class="cls-2" fill-rule="evenodd"/>
</svg>
