<svg xmlns="http://www.w3.org/2000/svg" xmlns:xlink="http://www.w3.org/1999/xlink" preserveAspectRatio="xMidYMid" width="54" height="64" viewBox="0 0 54 64">
  <defs>
    <style>

      .cls-2 {
        fill: #252e33;
      }
    </style>
  </defs>
  <path d="M53.998,31.659 C53.998,31.659 53.998,63.984 53.998,63.984 C53.998,63.984 0.002,63.984 0.002,63.984 C0.002,63.984 0.002,31.659 0.002,31.659 C0.002,31.659 3.887,31.659 3.887,31.659 C3.887,31.659 3.887,22.828 3.887,22.828 C3.887,16.734 6.291,11.005 10.657,6.696 C15.021,2.387 20.827,0.014 27.000,0.014 C33.174,0.014 38.980,2.387 43.346,6.697 C47.711,11.005 49.114,14.735 49.114,20.829 C49.114,20.829 42.625,20.829 42.625,20.829 C42.625,11.766 36.182,6.419 27.000,6.419 C17.819,6.419 10.376,13.766 10.376,22.829 C10.376,22.829 10.376,31.660 10.376,31.660 C10.376,31.660 53.998,31.659 53.998,31.659 ZM24.367,55.106 C24.367,57.119 26.002,58.766 28.000,58.766 C29.999,58.766 31.633,57.120 31.633,55.106 C31.633,55.106 31.633,40.538 31.633,40.538 C31.633,38.526 29.999,36.879 28.000,36.879 C26.002,36.879 24.367,38.525 24.367,40.538 C24.367,40.538 24.367,55.106 24.367,55.106 Z" id="path-1" class="cls-2" fill-rule="evenodd"/>
</svg>
