<svg xmlns="http://www.w3.org/2000/svg" xmlns:xlink="http://www.w3.org/1999/xlink" preserveAspectRatio="xMidYMid" width="64" height="44" viewBox="0 0 64 44">
  <defs>
    <style>

      .cls-2 {
        fill: #252e33;
      }
    </style>
  </defs>
  <path d="M60.795,39.493 C60.795,39.493 52.249,32.198 52.249,32.198 C52.249,32.198 52.249,12.030 52.249,12.030 C52.249,12.030 60.795,4.736 60.795,4.736 C61.970,3.663 64.000,4.521 64.000,6.237 C64.000,6.237 64.000,37.991 64.000,37.991 C64.000,39.708 62.076,40.566 60.795,39.493 ZM44.787,43.998 C44.787,43.998 4.275,43.998 4.275,43.998 C1.925,43.998 0.003,42.068 0.003,39.708 C0.003,39.708 0.003,4.307 0.003,4.307 C0.003,1.946 1.925,0.015 4.275,0.015 C4.275,0.015 44.787,0.015 44.787,0.015 C47.137,0.015 49.060,1.946 49.060,4.307 C49.060,4.307 49.060,39.708 49.060,39.708 C49.060,42.068 47.137,43.998 44.787,43.998 Z" id="path-1" class="cls-2" fill-rule="evenodd"/>
</svg>
