<?xml version="1.0" encoding="utf-8"?>
<!-- Generator: Adobe Illustrator 18.0.0, SVG Export Plug-In . SVG Version: 6.00 Build 0)  -->
<!DOCTYPE svg PUBLIC "-//W3C//DTD SVG 1.1//EN" "http://www.w3.org/Graphics/SVG/1.1/DTD/svg11.dtd">
<svg version="1.1" id="Shape_27_1_" xmlns="http://www.w3.org/2000/svg" xmlns:xlink="http://www.w3.org/1999/xlink" x="0px"
	 y="0px" viewBox="0 0 66 66" enable-background="new 0 0 66 66" xml:space="preserve">
<g id="Shape_27">
	<g>
		<path fill-rule="evenodd" clip-rule="evenodd" fill="#252E33" d="M7.8,15.7c1.9,0,3.7-0.7,5-1.8c4.4-3.4,10.7-3.4,15.1,0
			c1.4,1.1,3.1,1.8,5,1.8c4.3,0,7.8-3.5,7.8-7.8C40.8,3.5,37.3,0,33,0c-1.9,0-3.7,0.7-5,1.8c-4.4,3.4-10.7,3.4-15.1,0
			C11.5,0.7,9.7,0,7.8,0C3.5,0,0,3.5,0,7.8C0,12.1,3.5,15.7,7.8,15.7z M58.2,15.7c4.3,0,7.8-3.5,7.8-7.8C66,3.5,62.5,0,58.2,0
			s-7.8,3.5-7.8,7.8C50.3,12.1,53.9,15.7,58.2,15.7z M7.8,40.8c4.3,0,7.8-3.5,7.8-7.8c0-4.3-3.5-7.8-7.8-7.8S0,28.7,0,33
			C0,37.3,3.5,40.8,7.8,40.8z M58.2,25.2c-1.9,0-3.7,0.7-5,1.8c-4.4,3.4-10.7,3.4-15.1,0c-1.4-1.1-3.1-1.8-5-1.8
			c-4.3,0-7.8,3.5-7.8,7.8c0,4.3,3.5,7.8,7.8,7.8c1.9,0,3.7-0.7,5-1.8c4.4-3.4,10.7-3.4,15.1,0c1.4,1.1,3.1,1.8,5,1.8
			c4.3,0,7.8-3.5,7.8-7.8C66,28.7,62.5,25.2,58.2,25.2z M58.2,50.3c-1.9,0-3.7,0.7-5,1.8c-4.4,3.4-10.7,3.4-15.1,0
			c-1.4-1.1-3.1-1.8-5-1.8c-1.9,0-3.7,0.7-5,1.8c-4.4,3.4-10.7,3.4-15.1,0c-1.4-1.1-3.1-1.8-5-1.8c-4.3,0-7.8,3.5-7.8,7.8
			C0,62.5,3.5,66,7.8,66c1.9,0,3.7-0.7,5-1.8c4.4-3.4,10.7-3.4,15.1,0c1.4,1.1,3.1,1.8,5,1.8c1.9,0,3.7-0.7,5-1.8
			c4.4-3.4,10.7-3.4,15.1,0c1.4,1.1,3.1,1.8,5,1.8c4.3,0,7.8-3.5,7.8-7.8C66,53.9,62.5,50.3,58.2,50.3z"/>
	</g>
</g>
</svg>
