<?xml version="1.0" encoding="utf-8"?>
<!-- Generator: Adobe Illustrator 18.0.0, SVG Export Plug-In . SVG Version: 6.00 Build 0)  -->
<!DOCTYPE svg PUBLIC "-//W3C//DTD SVG 1.1//EN" "http://www.w3.org/Graphics/SVG/1.1/DTD/svg11.dtd">
<svg version="1.1" id="Rectangle_22_1_" xmlns="http://www.w3.org/2000/svg" xmlns:xlink="http://www.w3.org/1999/xlink" x="0px"
	 y="0px" viewBox="0 0 63 63" enable-background="new 0 0 63 63" xml:space="preserve">
<g id="Rectangle_22">
	<g>
		<path fill-rule="evenodd" clip-rule="evenodd" fill="#252E33" d="M56.6,48L56.6,48c-8.3-1.3-15.5-8.1-17.5-16.2c0-0.1,0-0.2,0-0.2
			c0,0,0-0.1,0-0.1c0-0.1,0-0.1,0-0.2c0-4.1-3.4-7.5-7.5-7.5c0,0-0.1,0-0.1,0c0,0-0.1,0-0.1,0c-0.1,0-0.2,0-0.2,0
			c-8.1-2-14.9-9.2-16.2-17.5l0,0c-0.6-3.6-3.6-6.3-7.4-6.3C3.4,0.1,0,3.4,0,7.5c0,3.7,2.7,6.8,6.3,7.4l0,0
			c8.3,1.3,15.5,8,17.5,16.2c0,0.1,0,0.2,0,0.2c0,0.2,0,0.3,0,0.5C21.9,40,14.7,46.7,6.4,48l0,0c-3.6,0.6-6.3,3.6-6.3,7.4
			c0,4.1,3.4,7.5,7.5,7.5c3.7,0,6.8-2.7,7.4-6.3l0,0c1.3-8.3,8.1-15.5,16.2-17.5c0.2,0,0.3,0,0.5,0c0.1,0,0.2,0,0.2,0
			c8.1,2,14.9,9.2,16.2,17.5l0,0c0.6,3.6,3.6,6.3,7.4,6.3c4.1,0,7.5-3.4,7.5-7.5C62.9,51.7,60.2,48.6,56.6,48z M55.5,15
			c4.1,0,7.5-3.3,7.5-7.5c0-4.1-3.3-7.5-7.5-7.5S48,3.4,48,7.5C48,11.6,51.3,15,55.5,15z"/>
	</g>
</g>
</svg>
